<mxfile host="app.diagrams.net" agent="Mozilla/5.0 (Windows NT 10.0; Win64; x64) AppleWebKit/537.36 (KHTML, like Gecko) Chrome/128.0.0.0 Safari/537.36" version="24.7.17">
  <diagram id="R2lEEEUBdFMjLlhIrx00" name="Page-1">
    <mxGraphModel dx="948" dy="1490" grid="1" gridSize="10" guides="1" tooltips="1" connect="1" arrows="1" fold="1" page="1" pageScale="1" pageWidth="850" pageHeight="1100" math="0" shadow="0" extFonts="Permanent Marker^https://fonts.googleapis.com/css?family=Permanent+Marker">
      <root>
        <mxCell id="0" />
        <mxCell id="1" parent="0" />
        <mxCell id="MTEBWGZWSlYYC86KZtAg-1" value="guest" style="rounded=0;whiteSpace=wrap;html=1;" parent="1" vertex="1">
          <mxGeometry x="420" y="280" width="100" height="40" as="geometry" />
        </mxCell>
        <mxCell id="MTEBWGZWSlYYC86KZtAg-3" value="guest_id" style="ellipse;whiteSpace=wrap;html=1;align=center;fontStyle=4;" parent="1" vertex="1">
          <mxGeometry x="290" y="280" width="100" height="40" as="geometry" />
        </mxCell>
        <mxCell id="MTEBWGZWSlYYC86KZtAg-4" value="name" style="ellipse;whiteSpace=wrap;html=1;align=center;" parent="1" vertex="1">
          <mxGeometry x="290" y="280" width="100" height="40" as="geometry" />
        </mxCell>
        <mxCell id="MTEBWGZWSlYYC86KZtAg-5" value="email" style="ellipse;whiteSpace=wrap;html=1;align=center;" parent="1" vertex="1">
          <mxGeometry x="290" y="280" width="100" height="40" as="geometry" />
        </mxCell>
        <mxCell id="MTEBWGZWSlYYC86KZtAg-6" value="phone" style="ellipse;whiteSpace=wrap;html=1;align=center;" parent="1" vertex="1">
          <mxGeometry x="290" y="280" width="100" height="40" as="geometry" />
        </mxCell>
        <mxCell id="MTEBWGZWSlYYC86KZtAg-7" value="" style="endArrow=none;html=1;rounded=0;" parent="1" source="MTEBWGZWSlYYC86KZtAg-3" target="MTEBWGZWSlYYC86KZtAg-1" edge="1">
          <mxGeometry relative="1" as="geometry">
            <mxPoint x="380" y="190" as="sourcePoint" />
            <mxPoint x="540" y="190" as="targetPoint" />
          </mxGeometry>
        </mxCell>
        <mxCell id="MTEBWGZWSlYYC86KZtAg-8" value="" style="endArrow=none;html=1;rounded=0;" parent="1" source="MTEBWGZWSlYYC86KZtAg-4" target="MTEBWGZWSlYYC86KZtAg-1" edge="1">
          <mxGeometry relative="1" as="geometry">
            <mxPoint x="380" y="190" as="sourcePoint" />
            <mxPoint x="540" y="190" as="targetPoint" />
          </mxGeometry>
        </mxCell>
        <mxCell id="MTEBWGZWSlYYC86KZtAg-9" value="" style="endArrow=none;html=1;rounded=0;" parent="1" source="MTEBWGZWSlYYC86KZtAg-5" target="MTEBWGZWSlYYC86KZtAg-1" edge="1">
          <mxGeometry relative="1" as="geometry">
            <mxPoint x="380" y="190" as="sourcePoint" />
            <mxPoint x="540" y="190" as="targetPoint" />
          </mxGeometry>
        </mxCell>
        <mxCell id="MTEBWGZWSlYYC86KZtAg-10" value="" style="endArrow=none;html=1;rounded=0;" parent="1" source="MTEBWGZWSlYYC86KZtAg-6" target="MTEBWGZWSlYYC86KZtAg-1" edge="1">
          <mxGeometry relative="1" as="geometry">
            <mxPoint x="380" y="190" as="sourcePoint" />
            <mxPoint x="540" y="190" as="targetPoint" />
          </mxGeometry>
        </mxCell>
        <mxCell id="MTEBWGZWSlYYC86KZtAg-11" value="member" style="whiteSpace=wrap;html=1;align=center;" parent="1" vertex="1">
          <mxGeometry x="420" y="230" width="100" height="40" as="geometry" />
        </mxCell>
        <mxCell id="MTEBWGZWSlYYC86KZtAg-12" value="member_id" style="ellipse;whiteSpace=wrap;html=1;align=center;fontStyle=4;" parent="1" vertex="1">
          <mxGeometry x="280" y="230" width="100" height="40" as="geometry" />
        </mxCell>
        <mxCell id="MTEBWGZWSlYYC86KZtAg-13" value="name" style="ellipse;whiteSpace=wrap;html=1;align=center;" parent="1" vertex="1">
          <mxGeometry x="280" y="230" width="100" height="40" as="geometry" />
        </mxCell>
        <mxCell id="MTEBWGZWSlYYC86KZtAg-14" value="email" style="ellipse;whiteSpace=wrap;html=1;align=center;" parent="1" vertex="1">
          <mxGeometry x="280" y="230" width="100" height="40" as="geometry" />
        </mxCell>
        <mxCell id="MTEBWGZWSlYYC86KZtAg-15" value="" style="endArrow=none;html=1;rounded=0;" parent="1" source="MTEBWGZWSlYYC86KZtAg-11" target="MTEBWGZWSlYYC86KZtAg-14" edge="1">
          <mxGeometry relative="1" as="geometry">
            <mxPoint x="390" y="250" as="sourcePoint" />
            <mxPoint x="550" y="250" as="targetPoint" />
          </mxGeometry>
        </mxCell>
        <mxCell id="MTEBWGZWSlYYC86KZtAg-16" value="phone" style="ellipse;whiteSpace=wrap;html=1;align=center;" parent="1" vertex="1">
          <mxGeometry x="280" y="230" width="100" height="40" as="geometry" />
        </mxCell>
        <mxCell id="MTEBWGZWSlYYC86KZtAg-17" value="adress" style="ellipse;whiteSpace=wrap;html=1;align=center;" parent="1" vertex="1">
          <mxGeometry x="280" y="230" width="100" height="40" as="geometry" />
        </mxCell>
        <mxCell id="MTEBWGZWSlYYC86KZtAg-19" value="john_date" style="ellipse;whiteSpace=wrap;html=1;align=center;" parent="1" vertex="1">
          <mxGeometry x="280" y="230" width="100" height="40" as="geometry" />
        </mxCell>
        <mxCell id="MTEBWGZWSlYYC86KZtAg-20" value="" style="endArrow=none;html=1;rounded=0;" parent="1" source="MTEBWGZWSlYYC86KZtAg-12" target="MTEBWGZWSlYYC86KZtAg-11" edge="1">
          <mxGeometry relative="1" as="geometry">
            <mxPoint x="390" y="250" as="sourcePoint" />
            <mxPoint x="550" y="250" as="targetPoint" />
          </mxGeometry>
        </mxCell>
        <mxCell id="MTEBWGZWSlYYC86KZtAg-22" value="" style="endArrow=none;html=1;rounded=0;" parent="1" source="MTEBWGZWSlYYC86KZtAg-13" target="MTEBWGZWSlYYC86KZtAg-11" edge="1">
          <mxGeometry relative="1" as="geometry">
            <mxPoint x="390" y="250" as="sourcePoint" />
            <mxPoint x="550" y="250" as="targetPoint" />
          </mxGeometry>
        </mxCell>
        <mxCell id="MTEBWGZWSlYYC86KZtAg-23" value="" style="endArrow=none;html=1;rounded=0;" parent="1" source="MTEBWGZWSlYYC86KZtAg-11" target="MTEBWGZWSlYYC86KZtAg-16" edge="1">
          <mxGeometry relative="1" as="geometry">
            <mxPoint x="390" y="250" as="sourcePoint" />
            <mxPoint x="550" y="250" as="targetPoint" />
          </mxGeometry>
        </mxCell>
        <mxCell id="MTEBWGZWSlYYC86KZtAg-24" value="" style="endArrow=none;html=1;rounded=0;" parent="1" source="MTEBWGZWSlYYC86KZtAg-11" target="MTEBWGZWSlYYC86KZtAg-17" edge="1">
          <mxGeometry relative="1" as="geometry">
            <mxPoint x="390" y="250" as="sourcePoint" />
            <mxPoint x="550" y="250" as="targetPoint" />
          </mxGeometry>
        </mxCell>
        <mxCell id="MTEBWGZWSlYYC86KZtAg-25" value="" style="endArrow=none;html=1;rounded=0;" parent="1" source="MTEBWGZWSlYYC86KZtAg-11" target="MTEBWGZWSlYYC86KZtAg-19" edge="1">
          <mxGeometry relative="1" as="geometry">
            <mxPoint x="390" y="250" as="sourcePoint" />
            <mxPoint x="550" y="250" as="targetPoint" />
          </mxGeometry>
        </mxCell>
        <mxCell id="MTEBWGZWSlYYC86KZtAg-26" value="shop" style="whiteSpace=wrap;html=1;align=center;" parent="1" vertex="1">
          <mxGeometry x="420" y="170" width="100" height="40" as="geometry" />
        </mxCell>
        <mxCell id="MTEBWGZWSlYYC86KZtAg-27" value="shop_id" style="ellipse;whiteSpace=wrap;html=1;align=center;fontStyle=4;" parent="1" vertex="1">
          <mxGeometry x="280" y="170" width="100" height="40" as="geometry" />
        </mxCell>
        <mxCell id="MTEBWGZWSlYYC86KZtAg-28" value="name" style="ellipse;whiteSpace=wrap;html=1;align=center;" parent="1" vertex="1">
          <mxGeometry x="280" y="170" width="100" height="40" as="geometry" />
        </mxCell>
        <mxCell id="MTEBWGZWSlYYC86KZtAg-29" value="adress" style="ellipse;whiteSpace=wrap;html=1;align=center;" parent="1" vertex="1">
          <mxGeometry x="280" y="170" width="100" height="40" as="geometry" />
        </mxCell>
        <mxCell id="MTEBWGZWSlYYC86KZtAg-30" value="contact_info" style="ellipse;whiteSpace=wrap;html=1;align=center;" parent="1" vertex="1">
          <mxGeometry x="280" y="170" width="100" height="40" as="geometry" />
        </mxCell>
        <mxCell id="MTEBWGZWSlYYC86KZtAg-31" value="" style="endArrow=none;html=1;rounded=0;" parent="1" source="MTEBWGZWSlYYC86KZtAg-26" target="MTEBWGZWSlYYC86KZtAg-30" edge="1">
          <mxGeometry relative="1" as="geometry">
            <mxPoint x="360" y="120" as="sourcePoint" />
            <mxPoint x="520" y="120" as="targetPoint" />
          </mxGeometry>
        </mxCell>
        <mxCell id="MTEBWGZWSlYYC86KZtAg-32" value="" style="endArrow=none;html=1;rounded=0;" parent="1" source="MTEBWGZWSlYYC86KZtAg-26" target="MTEBWGZWSlYYC86KZtAg-29" edge="1">
          <mxGeometry relative="1" as="geometry">
            <mxPoint x="360" y="120" as="sourcePoint" />
            <mxPoint x="520" y="120" as="targetPoint" />
          </mxGeometry>
        </mxCell>
        <mxCell id="MTEBWGZWSlYYC86KZtAg-33" value="" style="endArrow=none;html=1;rounded=0;" parent="1" source="MTEBWGZWSlYYC86KZtAg-28" target="MTEBWGZWSlYYC86KZtAg-26" edge="1">
          <mxGeometry relative="1" as="geometry">
            <mxPoint x="360" y="120" as="sourcePoint" />
            <mxPoint x="520" y="120" as="targetPoint" />
          </mxGeometry>
        </mxCell>
        <mxCell id="MTEBWGZWSlYYC86KZtAg-34" value="" style="endArrow=none;html=1;rounded=0;" parent="1" source="MTEBWGZWSlYYC86KZtAg-27" target="MTEBWGZWSlYYC86KZtAg-26" edge="1">
          <mxGeometry relative="1" as="geometry">
            <mxPoint x="360" y="120" as="sourcePoint" />
            <mxPoint x="520" y="120" as="targetPoint" />
          </mxGeometry>
        </mxCell>
        <mxCell id="MTEBWGZWSlYYC86KZtAg-35" value="admin" style="whiteSpace=wrap;html=1;align=center;" parent="1" vertex="1">
          <mxGeometry x="420" y="100" width="100" height="40" as="geometry" />
        </mxCell>
        <mxCell id="MTEBWGZWSlYYC86KZtAg-36" value="username" style="ellipse;whiteSpace=wrap;html=1;align=center;" parent="1" vertex="1">
          <mxGeometry x="280" y="100" width="100" height="40" as="geometry" />
        </mxCell>
        <mxCell id="MTEBWGZWSlYYC86KZtAg-37" value="admin_id" style="ellipse;whiteSpace=wrap;html=1;align=center;fontStyle=4;" parent="1" vertex="1">
          <mxGeometry x="280" y="100" width="100" height="40" as="geometry" />
        </mxCell>
        <mxCell id="MTEBWGZWSlYYC86KZtAg-38" value="" style="endArrow=none;html=1;rounded=0;" parent="1" source="MTEBWGZWSlYYC86KZtAg-35" target="MTEBWGZWSlYYC86KZtAg-37" edge="1">
          <mxGeometry relative="1" as="geometry">
            <mxPoint x="360" y="120" as="sourcePoint" />
            <mxPoint x="520" y="120" as="targetPoint" />
          </mxGeometry>
        </mxCell>
        <mxCell id="MTEBWGZWSlYYC86KZtAg-39" value="" style="endArrow=none;html=1;rounded=0;" parent="1" source="MTEBWGZWSlYYC86KZtAg-36" target="MTEBWGZWSlYYC86KZtAg-35" edge="1">
          <mxGeometry relative="1" as="geometry">
            <mxPoint x="360" y="120" as="sourcePoint" />
            <mxPoint x="520" y="120" as="targetPoint" />
          </mxGeometry>
        </mxCell>
        <mxCell id="MTEBWGZWSlYYC86KZtAg-41" value="password" style="ellipse;whiteSpace=wrap;html=1;align=center;" parent="1" vertex="1">
          <mxGeometry x="280" y="100" width="100" height="40" as="geometry" />
        </mxCell>
        <mxCell id="MTEBWGZWSlYYC86KZtAg-42" value="email" style="ellipse;whiteSpace=wrap;html=1;align=center;" parent="1" vertex="1">
          <mxGeometry x="280" y="100" width="100" height="40" as="geometry" />
        </mxCell>
        <mxCell id="MTEBWGZWSlYYC86KZtAg-43" value="" style="endArrow=none;html=1;rounded=0;" parent="1" source="MTEBWGZWSlYYC86KZtAg-35" target="MTEBWGZWSlYYC86KZtAg-41" edge="1">
          <mxGeometry relative="1" as="geometry">
            <mxPoint x="360" y="120" as="sourcePoint" />
            <mxPoint x="520" y="120" as="targetPoint" />
          </mxGeometry>
        </mxCell>
        <mxCell id="MTEBWGZWSlYYC86KZtAg-44" value="" style="endArrow=none;html=1;rounded=0;" parent="1" source="MTEBWGZWSlYYC86KZtAg-35" target="MTEBWGZWSlYYC86KZtAg-42" edge="1">
          <mxGeometry relative="1" as="geometry">
            <mxPoint x="360" y="120" as="sourcePoint" />
            <mxPoint x="520" y="120" as="targetPoint" />
          </mxGeometry>
        </mxCell>
        <mxCell id="MTEBWGZWSlYYC86KZtAg-45" value="Koi" style="whiteSpace=wrap;html=1;align=center;" parent="1" vertex="1">
          <mxGeometry x="420" y="40" width="100" height="40" as="geometry" />
        </mxCell>
        <mxCell id="MTEBWGZWSlYYC86KZtAg-46" value="name" style="ellipse;whiteSpace=wrap;html=1;align=center;" parent="1" vertex="1">
          <mxGeometry x="280" y="40" width="100" height="40" as="geometry" />
        </mxCell>
        <mxCell id="agwxjOaZRlQN-cgObHdg-1" value="Koi_id" style="ellipse;whiteSpace=wrap;html=1;align=center;fontStyle=4;" vertex="1" parent="1">
          <mxGeometry x="280" y="40" width="100" height="40" as="geometry" />
        </mxCell>
        <mxCell id="agwxjOaZRlQN-cgObHdg-2" value="image" style="ellipse;whiteSpace=wrap;html=1;align=center;" vertex="1" parent="1">
          <mxGeometry x="280" y="40" width="100" height="40" as="geometry" />
        </mxCell>
        <mxCell id="agwxjOaZRlQN-cgObHdg-3" value="body_shape" style="ellipse;whiteSpace=wrap;html=1;align=center;" vertex="1" parent="1">
          <mxGeometry x="280" y="40" width="100" height="40" as="geometry" />
        </mxCell>
        <mxCell id="agwxjOaZRlQN-cgObHdg-4" value="age" style="ellipse;whiteSpace=wrap;html=1;align=center;" vertex="1" parent="1">
          <mxGeometry x="280" y="40" width="100" height="40" as="geometry" />
        </mxCell>
        <mxCell id="agwxjOaZRlQN-cgObHdg-5" value="size" style="ellipse;whiteSpace=wrap;html=1;align=center;" vertex="1" parent="1">
          <mxGeometry x="280" y="40" width="100" height="40" as="geometry" />
        </mxCell>
        <mxCell id="agwxjOaZRlQN-cgObHdg-7" value="gender" style="ellipse;whiteSpace=wrap;html=1;align=center;" vertex="1" parent="1">
          <mxGeometry x="280" y="40" width="100" height="40" as="geometry" />
        </mxCell>
        <mxCell id="agwxjOaZRlQN-cgObHdg-8" value="breed" style="ellipse;whiteSpace=wrap;html=1;align=center;" vertex="1" parent="1">
          <mxGeometry x="280" y="40" width="100" height="40" as="geometry" />
        </mxCell>
        <mxCell id="agwxjOaZRlQN-cgObHdg-9" value="origin" style="ellipse;whiteSpace=wrap;html=1;align=center;" vertex="1" parent="1">
          <mxGeometry x="280" y="40" width="100" height="40" as="geometry" />
        </mxCell>
        <mxCell id="agwxjOaZRlQN-cgObHdg-11" value="pond_id" style="ellipse;whiteSpace=wrap;html=1;align=center;" vertex="1" parent="1">
          <mxGeometry x="280" y="40" width="100" height="40" as="geometry" />
        </mxCell>
        <mxCell id="agwxjOaZRlQN-cgObHdg-13" value="" style="endArrow=none;html=1;rounded=0;" edge="1" parent="1" source="MTEBWGZWSlYYC86KZtAg-45" target="agwxjOaZRlQN-cgObHdg-1">
          <mxGeometry relative="1" as="geometry">
            <mxPoint x="340" y="100" as="sourcePoint" />
            <mxPoint x="500" y="100" as="targetPoint" />
          </mxGeometry>
        </mxCell>
        <mxCell id="agwxjOaZRlQN-cgObHdg-14" value="" style="endArrow=none;html=1;rounded=0;" edge="1" parent="1" source="MTEBWGZWSlYYC86KZtAg-45" target="MTEBWGZWSlYYC86KZtAg-46">
          <mxGeometry relative="1" as="geometry">
            <mxPoint x="340" y="100" as="sourcePoint" />
            <mxPoint x="500" y="100" as="targetPoint" />
          </mxGeometry>
        </mxCell>
        <mxCell id="agwxjOaZRlQN-cgObHdg-15" value="" style="endArrow=none;html=1;rounded=0;" edge="1" parent="1" source="MTEBWGZWSlYYC86KZtAg-45" target="agwxjOaZRlQN-cgObHdg-2">
          <mxGeometry relative="1" as="geometry">
            <mxPoint x="340" y="50" as="sourcePoint" />
            <mxPoint x="500" y="50" as="targetPoint" />
          </mxGeometry>
        </mxCell>
        <mxCell id="agwxjOaZRlQN-cgObHdg-16" value="" style="endArrow=none;html=1;rounded=0;" edge="1" parent="1" source="MTEBWGZWSlYYC86KZtAg-45" target="agwxjOaZRlQN-cgObHdg-3">
          <mxGeometry relative="1" as="geometry">
            <mxPoint x="340" y="50" as="sourcePoint" />
            <mxPoint x="500" y="50" as="targetPoint" />
          </mxGeometry>
        </mxCell>
        <mxCell id="agwxjOaZRlQN-cgObHdg-17" value="" style="endArrow=none;html=1;rounded=0;" edge="1" parent="1" source="MTEBWGZWSlYYC86KZtAg-45" target="agwxjOaZRlQN-cgObHdg-4">
          <mxGeometry relative="1" as="geometry">
            <mxPoint x="340" y="50" as="sourcePoint" />
            <mxPoint x="500" y="50" as="targetPoint" />
          </mxGeometry>
        </mxCell>
        <mxCell id="agwxjOaZRlQN-cgObHdg-18" value="" style="endArrow=none;html=1;rounded=0;" edge="1" parent="1" source="agwxjOaZRlQN-cgObHdg-6" target="MTEBWGZWSlYYC86KZtAg-45">
          <mxGeometry relative="1" as="geometry">
            <mxPoint x="340" y="50" as="sourcePoint" />
            <mxPoint x="500" y="50" as="targetPoint" />
          </mxGeometry>
        </mxCell>
        <mxCell id="agwxjOaZRlQN-cgObHdg-20" value="" style="endArrow=none;html=1;rounded=0;" edge="1" parent="1" source="agwxjOaZRlQN-cgObHdg-8" target="MTEBWGZWSlYYC86KZtAg-45">
          <mxGeometry relative="1" as="geometry">
            <mxPoint x="340" y="50" as="sourcePoint" />
            <mxPoint x="500" y="50" as="targetPoint" />
          </mxGeometry>
        </mxCell>
        <mxCell id="agwxjOaZRlQN-cgObHdg-21" value="" style="endArrow=none;html=1;rounded=0;" edge="1" parent="1" source="MTEBWGZWSlYYC86KZtAg-45" target="agwxjOaZRlQN-cgObHdg-5">
          <mxGeometry relative="1" as="geometry">
            <mxPoint x="340" y="50" as="sourcePoint" />
            <mxPoint x="500" y="50" as="targetPoint" />
          </mxGeometry>
        </mxCell>
        <mxCell id="agwxjOaZRlQN-cgObHdg-22" value="" style="endArrow=none;html=1;rounded=0;" edge="1" parent="1" source="agwxjOaZRlQN-cgObHdg-7" target="MTEBWGZWSlYYC86KZtAg-45">
          <mxGeometry relative="1" as="geometry">
            <mxPoint x="340" y="50" as="sourcePoint" />
            <mxPoint x="500" y="50" as="targetPoint" />
            <Array as="points" />
          </mxGeometry>
        </mxCell>
        <mxCell id="agwxjOaZRlQN-cgObHdg-23" value="" style="endArrow=none;html=1;rounded=0;" edge="1" parent="1" source="MTEBWGZWSlYYC86KZtAg-45" target="agwxjOaZRlQN-cgObHdg-9">
          <mxGeometry relative="1" as="geometry">
            <mxPoint x="340" y="50" as="sourcePoint" />
            <mxPoint x="500" y="50" as="targetPoint" />
          </mxGeometry>
        </mxCell>
        <mxCell id="agwxjOaZRlQN-cgObHdg-24" value="" style="endArrow=none;html=1;rounded=0;" edge="1" parent="1" source="agwxjOaZRlQN-cgObHdg-6" target="agwxjOaZRlQN-cgObHdg-11">
          <mxGeometry relative="1" as="geometry">
            <mxPoint x="340" y="50" as="sourcePoint" />
            <mxPoint x="500" y="50" as="targetPoint" />
          </mxGeometry>
        </mxCell>
        <mxCell id="agwxjOaZRlQN-cgObHdg-25" value="price" style="ellipse;whiteSpace=wrap;html=1;align=center;" vertex="1" parent="1">
          <mxGeometry x="280" y="40" width="100" height="40" as="geometry" />
        </mxCell>
        <mxCell id="agwxjOaZRlQN-cgObHdg-26" value="" style="endArrow=none;html=1;rounded=0;" edge="1" parent="1" source="MTEBWGZWSlYYC86KZtAg-45" target="agwxjOaZRlQN-cgObHdg-25">
          <mxGeometry relative="1" as="geometry">
            <mxPoint x="340" y="100" as="sourcePoint" />
            <mxPoint x="500" y="100" as="targetPoint" />
          </mxGeometry>
        </mxCell>
        <mxCell id="agwxjOaZRlQN-cgObHdg-27" value="" style="endArrow=none;html=1;rounded=0;" edge="1" parent="1" source="MTEBWGZWSlYYC86KZtAg-45" target="agwxjOaZRlQN-cgObHdg-6">
          <mxGeometry relative="1" as="geometry">
            <mxPoint x="420" y="63" as="sourcePoint" />
            <mxPoint x="219" y="77" as="targetPoint" />
          </mxGeometry>
        </mxCell>
        <mxCell id="agwxjOaZRlQN-cgObHdg-6" value="weight" style="ellipse;whiteSpace=wrap;html=1;align=center;" vertex="1" parent="1">
          <mxGeometry x="280" y="40" width="100" height="40" as="geometry" />
        </mxCell>
        <mxCell id="agwxjOaZRlQN-cgObHdg-28" value="pond" style="whiteSpace=wrap;html=1;align=center;" vertex="1" parent="1">
          <mxGeometry x="425" y="-50" width="100" height="40" as="geometry" />
        </mxCell>
        <mxCell id="agwxjOaZRlQN-cgObHdg-29" value="size" style="ellipse;whiteSpace=wrap;html=1;align=center;" vertex="1" parent="1">
          <mxGeometry x="300" y="-50" width="100" height="40" as="geometry" />
        </mxCell>
        <mxCell id="agwxjOaZRlQN-cgObHdg-30" value="pond_id" style="ellipse;whiteSpace=wrap;html=1;align=center;fontStyle=4;" vertex="1" parent="1">
          <mxGeometry x="300" y="-50" width="100" height="40" as="geometry" />
        </mxCell>
        <mxCell id="agwxjOaZRlQN-cgObHdg-31" value="name" style="ellipse;whiteSpace=wrap;html=1;align=center;" vertex="1" parent="1">
          <mxGeometry x="300" y="-50" width="100" height="40" as="geometry" />
        </mxCell>
        <mxCell id="agwxjOaZRlQN-cgObHdg-32" value="image" style="ellipse;whiteSpace=wrap;html=1;align=center;" vertex="1" parent="1">
          <mxGeometry x="300" y="-50" width="100" height="40" as="geometry" />
        </mxCell>
        <mxCell id="agwxjOaZRlQN-cgObHdg-33" value="depth" style="ellipse;whiteSpace=wrap;html=1;align=center;" vertex="1" parent="1">
          <mxGeometry x="300" y="-50" width="100" height="40" as="geometry" />
        </mxCell>
        <mxCell id="agwxjOaZRlQN-cgObHdg-34" value="volume" style="ellipse;whiteSpace=wrap;html=1;align=center;" vertex="1" parent="1">
          <mxGeometry x="300" y="-50" width="100" height="40" as="geometry" />
        </mxCell>
        <mxCell id="agwxjOaZRlQN-cgObHdg-35" value="drain_count" style="ellipse;whiteSpace=wrap;html=1;align=center;" vertex="1" parent="1">
          <mxGeometry x="300" y="-50" width="100" height="40" as="geometry" />
        </mxCell>
        <mxCell id="agwxjOaZRlQN-cgObHdg-36" value="pump_capacity" style="ellipse;whiteSpace=wrap;html=1;align=center;" vertex="1" parent="1">
          <mxGeometry x="300" y="-50" width="100" height="40" as="geometry" />
        </mxCell>
        <mxCell id="agwxjOaZRlQN-cgObHdg-38" value="water_param_id" style="ellipse;whiteSpace=wrap;html=1;align=center;" vertex="1" parent="1">
          <mxGeometry x="300" y="-50" width="100" height="40" as="geometry" />
        </mxCell>
        <mxCell id="agwxjOaZRlQN-cgObHdg-39" value="" style="endArrow=none;html=1;rounded=0;" edge="1" parent="1" source="agwxjOaZRlQN-cgObHdg-29" target="agwxjOaZRlQN-cgObHdg-28">
          <mxGeometry relative="1" as="geometry">
            <mxPoint x="340" y="-10" as="sourcePoint" />
            <mxPoint x="500" y="-10" as="targetPoint" />
          </mxGeometry>
        </mxCell>
        <mxCell id="agwxjOaZRlQN-cgObHdg-40" value="" style="endArrow=none;html=1;rounded=0;" edge="1" parent="1" source="agwxjOaZRlQN-cgObHdg-33" target="agwxjOaZRlQN-cgObHdg-28">
          <mxGeometry relative="1" as="geometry">
            <mxPoint x="340" y="-10" as="sourcePoint" />
            <mxPoint x="500" y="-10" as="targetPoint" />
          </mxGeometry>
        </mxCell>
        <mxCell id="agwxjOaZRlQN-cgObHdg-41" value="" style="endArrow=none;html=1;rounded=0;" edge="1" parent="1" source="agwxjOaZRlQN-cgObHdg-31" target="agwxjOaZRlQN-cgObHdg-28">
          <mxGeometry relative="1" as="geometry">
            <mxPoint x="340" y="-10" as="sourcePoint" />
            <mxPoint x="500" y="-10" as="targetPoint" />
          </mxGeometry>
        </mxCell>
        <mxCell id="agwxjOaZRlQN-cgObHdg-42" value="" style="endArrow=none;html=1;rounded=0;" edge="1" parent="1" source="agwxjOaZRlQN-cgObHdg-32" target="agwxjOaZRlQN-cgObHdg-28">
          <mxGeometry relative="1" as="geometry">
            <mxPoint x="340" y="-10" as="sourcePoint" />
            <mxPoint x="500" y="-10" as="targetPoint" />
          </mxGeometry>
        </mxCell>
        <mxCell id="agwxjOaZRlQN-cgObHdg-43" value="" style="endArrow=none;html=1;rounded=0;" edge="1" parent="1" source="agwxjOaZRlQN-cgObHdg-30" target="agwxjOaZRlQN-cgObHdg-28">
          <mxGeometry relative="1" as="geometry">
            <mxPoint x="340" y="-10" as="sourcePoint" />
            <mxPoint x="500" y="-10" as="targetPoint" />
          </mxGeometry>
        </mxCell>
        <mxCell id="agwxjOaZRlQN-cgObHdg-44" value="" style="endArrow=none;html=1;rounded=0;" edge="1" parent="1" source="agwxjOaZRlQN-cgObHdg-28" target="agwxjOaZRlQN-cgObHdg-36">
          <mxGeometry relative="1" as="geometry">
            <mxPoint x="340" y="-10" as="sourcePoint" />
            <mxPoint x="500" y="-10" as="targetPoint" />
          </mxGeometry>
        </mxCell>
        <mxCell id="agwxjOaZRlQN-cgObHdg-45" value="" style="endArrow=none;html=1;rounded=0;" edge="1" parent="1" source="agwxjOaZRlQN-cgObHdg-35" target="agwxjOaZRlQN-cgObHdg-28">
          <mxGeometry relative="1" as="geometry">
            <mxPoint x="340" y="-10" as="sourcePoint" />
            <mxPoint x="500" y="-10" as="targetPoint" />
          </mxGeometry>
        </mxCell>
        <mxCell id="agwxjOaZRlQN-cgObHdg-46" value="" style="endArrow=none;html=1;rounded=0;" edge="1" parent="1" source="agwxjOaZRlQN-cgObHdg-34" target="agwxjOaZRlQN-cgObHdg-28">
          <mxGeometry relative="1" as="geometry">
            <mxPoint x="340" y="-10" as="sourcePoint" />
            <mxPoint x="500" y="-10" as="targetPoint" />
          </mxGeometry>
        </mxCell>
        <mxCell id="agwxjOaZRlQN-cgObHdg-47" value="" style="endArrow=none;html=1;rounded=0;" edge="1" parent="1" source="agwxjOaZRlQN-cgObHdg-38" target="agwxjOaZRlQN-cgObHdg-28">
          <mxGeometry relative="1" as="geometry">
            <mxPoint x="340" y="-10" as="sourcePoint" />
            <mxPoint x="500" y="-10" as="targetPoint" />
          </mxGeometry>
        </mxCell>
      </root>
    </mxGraphModel>
  </diagram>
</mxfile>
